<?xml version="1.0" standalone="no"?>
<!DOCTYPE svg PUBLIC "-//W3C//DTD SVG 20010904//EN"
 "http://www.w3.org/TR/2001/REC-SVG-20010904/DTD/svg10.dtd">
<svg version="1.0" xmlns="http://www.w3.org/2000/svg"
 width="10416.000000pt" height="10416.000000pt" viewBox="0 0 10416.000000 10416.000000"
 preserveAspectRatio="xMidYMid meet">

<g transform="translate(0.000000,10416.000000) scale(0.100000,-0.100000)"
fill="#6375ff" stroke="none">
<path d="M23450 95856 l0 -7286 -2877 -2 -2877 -3 -7972 -10914 -7973 -10915
207 -212 c114 -117 342 -352 507 -522 2147 -2207 4188 -4627 5961 -7067 4883
-6720 8266 -14179 10238 -22575 1270 -5409 1975 -11370 2076 -17562 6 -364 14
-768 18 -897 l7 -234 15653 -7809 c8609 -4294 15657 -7808 15662 -7808 5 0
7053 3514 15662 7808 l15653 7809 7 259 c4 142 12 552 18 909 27 1626 101
3316 215 4945 744 10578 3238 19767 7583 27935 2735 5142 6273 9965 10487
14297 165 170 391 402 502 517 l202 207 -7973 10915 -7972 10914 -2877 3
-2877 2 -2 7283 -3 7284 -2854 -1953 -2853 -1953 -77 52 c-42 28 -1333 907
-2869 1954 -1537 1047 -2795 1903 -2797 1903 -1 0 -1255 -853 -2786 -1896
-1531 -1043 -2823 -1923 -2870 -1955 l-86 -58 -2858 1955 -2857 1955 -26 -17
c-15 -10 -1301 -890 -2859 -1955 l-2832 -1938 -2793 1911 c-1536 1051 -2823
1931 -2859 1955 l-66 44 -2858 -1955 -2858 -1955 -61 41 c-33 23 -1325 903
-2870 1956 l-2808 1913 -52 -34 c-28 -19 -1318 -897 -2866 -1952 -1548 -1055
-2819 -1918 -2825 -1918 -7 0 -5440 3711 -5687 3885 l-28 19 0 -7285z m27105
1534 c904 -632 1551 -1077 1558 -1073 7 3 728 465 1604 1025 875 560 1594
1018 1597 1018 3 0 6 -2250 6 -5000 l0 -5000 -1283 0 c-706 0 -2128 -3 -3160
-7 l-1877 -6 0 5061 c0 2784 2 5062 5 5062 2 0 700 -486 1550 -1080z m-22958
-69 c870 -556 1588 -1014 1596 -1017 8 -3 679 420 1588 1002 866 554 1589
1016 1607 1027 l32 19 0 -5001 0 -5001 -3215 0 -3215 0 0 5001 c0 4000 3 4999
13 4992 6 -6 724 -465 1594 -1022z m11448 -9 c864 -553 1575 -1007 1582 -1009
9 -4 1990 1256 3201 2035 l22 14 0 -5001 0 -5001 -3215 0 -3215 0 0 5001 0
5001 28 -18 c15 -10 734 -470 1597 -1022z m22893 -1 c871 -557 1588 -1011
1595 -1008 9 3 3041 1941 3181 2032 l26 17 0 -5001 0 -5001 -3215 0 -3215 0 0
5001 0 5001 23 -14 c12 -8 734 -470 1605 -1027z m11441 -5 c938 -600 1580
-1005 1588 -1001 12 4 1153 733 3136 2002 l67 43 0 -5000 0 -5000 -3215 0
-3215 0 0 5001 0 5001 33 -19 c17 -11 740 -473 1606 -1027z m17646 -21322
c3553 -4864 6466 -8853 6473 -8863 12 -17 -6 -42 -194 -263 -4162 -4887 -7615
-10184 -10276 -15763 -4375 -9172 -6793 -19398 -7314 -30940 l-7 -150 -13789
-6879 c-7584 -3783 -13802 -6883 -13817 -6889 -26 -9 -1084 517 -13837 6878
-7595 3789 -13810 6889 -13810 6889 -1 1 -7 114 -13 251 -694 14902 -4469
27333 -11732 38636 -1725 2685 -3682 5355 -5816 7937 -166 200 -232 286 -226
296 4 8 2915 3995 6468 8860 l6460 8845 32485 0 32485 0 6460 -8845z"/>
<path d="M15165 74918 c-3075 -4208 -5598 -7663 -5608 -7678 l-17 -27 215
-258 c6231 -7445 11094 -16759 13960 -26735 454 -1579 862 -3198 1205 -4775
39 -176 72 -330 75 -343 l5 -22 27103 0 27102 0 73 343 c440 2053 1014 4261
1648 6337 1529 5003 3543 9813 5972 14260 2202 4033 4748 7751 7501 10954 202
236 213 250 200 271 -8 12 -2529 3465 -5604 7673 l-5590 7652 -31325 0 -31325
0 -5590 -7652z m53301 5746 c39 -19 114 -97 114 -119 0 -9 -62 -82 -139 -163
-2412 -2556 -6708 -4737 -10476 -5321 -788 -122 -1503 -170 -2332 -157 -454 7
-657 14 -1548 56 -1007 47 -1248 53 -1840 46 -297 -4 -575 -9 -618 -12 l-78
-6 6 -92 c23 -356 113 -598 311 -830 103 -122 295 -274 481 -380 99 -57 107
-58 583 -81 1136 -54 1643 -119 1910 -241 102 -47 147 -80 176 -129 27 -47 30
-72 10 -100 -7 -11 -57 -103 -111 -205 -54 -102 -121 -219 -148 -260 -51 -75
-140 -172 -187 -203 -59 -38 -356 -83 -945 -142 -657 -67 -883 -101 -1173
-175 -327 -85 -564 -200 -745 -361 -48 -43 -68 -72 -118 -171 -249 -497 -615
-1091 -1027 -1670 -290 -407 -498 -680 -1112 -1458 -616 -781 -820 -1047
-1059 -1376 -56 -78 -138 -182 -183 -230 -355 -388 -742 -974 -1003 -1517
-301 -627 -449 -1207 -415 -1628 28 -336 130 -571 336 -769 228 -219 434 -287
1004 -332 211 -17 1146 -16 1505 0 1051 50 1690 95 4005 286 2438 202 3482
260 4222 236 331 -11 404 -19 716 -76 1986 -361 3686 -1121 4972 -2224 162
-139 418 -381 549 -519 143 -151 147 -160 112 -229 -27 -51 -69 -89 -191 -170
-148 -98 -197 -146 -290 -284 -101 -151 -141 -230 -191 -377 -63 -190 -82
-320 -82 -566 0 -295 36 -527 140 -885 139 -482 405 -1067 765 -1683 724
-1241 1894 -2737 3333 -4262 435 -461 1131 -1146 1456 -1434 l125 -111 32 -93
c75 -222 105 -426 105 -717 0 -273 -11 -385 -98 -975 -77 -528 -79 -552 -80
-875 0 -399 4 -421 169 -970 349 -1155 592 -1858 866 -2500 541 -1269 1186
-2218 2006 -2952 132 -118 134 -121 134 -228 0 -32 9 -109 19 -172 52 -302
187 -560 411 -788 218 -221 429 -362 1025 -685 160 -86 340 -187 400 -223 126
-74 336 -216 358 -240 18 -20 311 -746 425 -1052 255 -683 393 -1214 392
-1507 0 -83 -26 -190 -56 -236 -95 -144 -340 -79 -687 181 -193 145 -373 307
-672 607 -489 488 -917 969 -1900 2135 -734 870 -978 1151 -1201 1380 -141
145 -205 235 -506 715 -1008 1609 -1606 2958 -2102 4737 -49 177 -80 266 -122
355 -31 65 -126 267 -211 448 -292 622 -496 1010 -692 1320 -520 819 -1272
1550 -2481 2411 -525 374 -1156 785 -1365 891 -481 242 -939 531 -2063 1303
-495 339 -1154 760 -1191 760 -6 0 -29 -16 -51 -36 -115 -104 -106 -335 26
-671 122 -311 298 -632 849 -1553 533 -891 679 -1149 869 -1535 325 -658 451
-1132 394 -1476 l-11 -70 -136 -127 c-176 -165 -551 -505 -1181 -1072 -1928
-1735 -3013 -2772 -3851 -3680 -637 -690 -1116 -1305 -1359 -1743 -36 -66
-111 -176 -169 -250 -178 -226 -380 -501 -601 -817 -599 -859 -759 -1061
-1086 -1380 -220 -213 -524 -461 -732 -595 l-62 -40 0 -115 c0 -63 5 -205 10
-315 15 -289 -4 -492 -68 -715 -18 -63 -20 -66 -98 -122 -255 -184 -911 -516
-1351 -684 -153 -58 -393 -128 -512 -148 -122 -21 -281 -21 -350 0 -77 23
-135 83 -152 159 l-13 58 38 73 c21 41 123 217 228 391 256 427 335 568 466
828 131 260 208 390 387 660 424 640 1114 1512 2224 2810 350 410 758 880
1666 1920 1286 1473 1709 1964 2253 2618 861 1032 1416 1767 1732 2292 102
170 230 419 230 446 -1 23 -685 521 -1940 1411 -1563 1107 -2165 1555 -2914
2167 -544 445 -958 812 -1472 1309 -243 233 -265 252 -298 252 -53 0 -406 -46
-616 -80 -531 -87 -1117 -221 -2170 -495 -1665 -434 -2389 -580 -3230 -652
-253 -21 -914 -25 -1115 -5 -477 46 -861 125 -1232 253 -137 48 -378 146 -462
189 -20 10 -74 26 -121 36 -120 26 -429 27 -550 1 -273 -58 -521 -184 -795
-403 -144 -116 -430 -403 -630 -634 -88 -101 -238 -274 -334 -385 -96 -110
-254 -279 -351 -376 l-177 -176 91 -54 c940 -553 1312 -711 1709 -726 174 -7
255 4 400 53 535 182 892 228 1152 150 44 -13 117 -28 162 -34 347 -46 1009
-297 1358 -517 281 -176 463 -365 515 -533 35 -114 25 -141 -82 -214 -264
-178 -951 -353 -1782 -453 -344 -41 -547 -51 -781 -37 -992 59 -2002 326
-3450 914 -176 72 -329 132 -341 135 -16 4 -41 -22 -130 -134 -329 -411 -596
-804 -1127 -1655 -343 -550 -489 -778 -651 -1018 -330 -487 -665 -922 -904
-1174 -396 -416 -859 -1080 -1510 -2162 -310 -516 -478 -808 -1372 -2379 -555
-977 -846 -1448 -1028 -1668 -48 -57 -63 -69 -150 -107 -399 -178 -642 -337
-771 -503 -37 -48 -44 -67 -62 -158 -38 -196 -51 -354 -52 -599 0 -254 10
-407 49 -710 l25 -195 -79 -77 c-162 -156 -371 -293 -677 -443 -198 -97 -318
-149 -775 -335 -151 -62 -344 -145 -427 -186 -84 -40 -167 -75 -185 -79 -18
-4 -132 -39 -253 -77 -351 -111 -470 -139 -610 -145 -95 -4 -128 -2 -157 10
-40 17 -78 67 -78 103 0 52 291 548 551 939 91 138 307 453 480 700 1145 1636
2441 3578 3495 5237 2155 3391 3650 6099 4449 8062 l49 118 -25 19 c-47 35
-326 204 -554 334 -302 173 -692 384 -1515 820 -771 408 -1107 588 -1470 788
-1350 741 -2215 1306 -2718 1774 l-74 68 -24 100 c-53 221 -80 535 -70 825 17
531 110 947 293 1310 159 316 366 534 627 660 248 120 405 144 946 143 648 0
1367 -49 3030 -208 1259 -120 1225 -118 1254 -86 10 11 37 28 60 37 39 17 68
57 89 125 7 21 -9 622 -23 860 -23 414 -48 723 -135 1709 -112 1274 -148 1833
-161 2524 l-7 341 110 215 c415 812 922 1492 1698 2279 627 636 1086 1033
2534 2195 1386 1111 1854 1517 2476 2147 350 355 600 637 861 974 220 284 500
695 490 721 -14 36 -90 136 -145 192 -157 156 -377 281 -721 410 -174 65 -349
119 -800 247 -426 121 -559 163 -733 235 -117 48 -130 56 -168 104 -100 125
-141 256 -141 456 -1 179 34 372 116 651 l17 56 127 50 c458 182 976 283 1727
338 116 8 419 26 675 40 980 53 1422 103 1885 215 101 25 155 31 345 40 778
37 1320 118 1523 228 62 33 107 84 107 121 0 52 -25 66 -185 106 -82 20 -265
70 -405 110 -1464 419 -2874 1006 -3741 1558 -319 202 -522 360 -725 562 -181
180 -265 290 -344 450 -87 177 -94 211 -94 455 0 231 13 298 80 440 73 155
158 244 439 460 88 67 194 154 237 191 l76 69 185 0 c310 0 647 -23 1552 -105
886 -81 1401 -115 1745 -115 193 0 210 -13 210 -164 -1 -170 -84 -333 -233
-454 -136 -110 -295 -188 -677 -332 -356 -134 -453 -178 -575 -260 -97 -66
-179 -155 -217 -236 -58 -124 -49 -313 21 -452 290 -575 1503 -995 3366 -1167
829 -76 1902 -90 2675 -34 478 34 862 89 1130 163 69 19 328 106 575 194 781
278 1094 364 1381 379 l110 6 36 -32 c100 -87 173 -332 199 -664 l13 -157 250
0 c1179 0 2431 288 3731 857 241 106 773 371 1020 508 1421 793 2765 1873
3864 3106 l122 137 217 6 c373 11 701 25 1162 52 619 35 770 41 1048 42 205 2
249 -1 278 -14z"/>
<path d="M34652 55902 c-18 -6 -77 -92 -115 -167 -82 -162 -89 -320 -19 -400
13 -15 141 -105 285 -199 510 -336 1037 -657 2032 -1236 1451 -844 1908 -1120
2369 -1427 76 -51 142 -93 146 -93 23 0 295 505 421 781 138 302 292 710 393
1034 57 186 146 517 146 547 0 12 -41 30 -172 73 -811 267 -2224 581 -3806
845 -702 117 -1647 253 -1680 242z"/>
<path d="M32800 24925 l0 -4175 2760 0 2760 0 0 3210 0 3210 5000 0 5001 0
-12 -22 c-7 -13 -845 -1436 -1864 -3163 -1018 -1727 -1864 -3161 -1879 -3187
l-28 -48 1254 0 1253 0 489 840 488 840 2797 0 2796 0 489 -840 490 -840 8598
0 8598 0 0 2785 0 2785 -486 0 -485 0 6 21 c4 11 222 540 486 1175 l479 1155
0 215 0 214 -5565 0 -5565 0 0 -1130 0 -1130 2120 0 2120 0 0 -1090 0 -1090
975 0 975 0 0 -1225 0 -1225 -3837 2 -3838 3 -2015 3442 -2015 3443 -11172 0
-11173 0 0 -4175z m19055 535 c560 -949 1020 -1731 1022 -1737 4 -10 -411 -13
-2056 -13 -1138 0 -2061 4 -2061 9 0 7 2007 3373 2056 3449 9 13 17 22 19 20
1 -1 460 -779 1020 -1728z"/>
</g>
</svg>
