<?xml version="1.0" standalone="no"?>
<!DOCTYPE svg PUBLIC "-//W3C//DTD SVG 20010904//EN"
 "http://www.w3.org/TR/2001/REC-SVG-20010904/DTD/svg10.dtd">
<svg version="1.0" xmlns="http://www.w3.org/2000/svg"
 width="1461.000000pt" height="604.000000pt" viewBox="0 0 1461.000000 604.000000"
 preserveAspectRatio="xMidYMid meet">

<g transform="translate(0.000000,604.000000) scale(0.100000,-0.100000)"
fill="#6375ff" stroke="none">
<path d="M185 5801 c-11 -5 -29 -18 -39 -30 -17 -19 -18 -24 -5 -47 22 -42 69
-72 211 -133 261 -114 1526 -665 1678 -731 401 -175 480 -210 543 -239 37 -17
70 -31 72 -31 3 0 80 -33 172 -74 93 -41 287 -126 433 -189 146 -63 290 -126
320 -140 30 -14 107 -47 170 -75 63 -27 187 -81 275 -120 88 -38 212 -92 275
-120 158 -68 439 -191 475 -208 17 -7 118 -51 225 -98 224 -97 203 -70 180
-241 -17 -124 -18 -387 -1 -520 27 -218 90 -441 182 -649 27 -60 49 -116 49
-123 0 -11 -250 -13 -1410 -13 l-1410 0 2 -842 3 -843 26 -55 c37 -80 72 -115
147 -152 l67 -33 4677 -3 4678 -2 0 965 0 965 -1430 0 c-1309 0 -1430 1 -1430
16 0 9 9 33 20 53 89 165 170 423 206 661 19 126 25 392 11 545 l-8 90 38 17
c21 9 164 75 318 146 154 71 305 141 335 155 30 13 127 58 215 100 184 85 157
73 750 347 492 227 546 252 745 345 74 35 252 117 395 183 143 66 292 134 330
152 39 18 223 103 410 190 187 87 360 167 385 178 25 11 86 39 135 62 50 23
178 83 285 132 107 50 237 110 288 134 52 24 97 44 101 44 5 0 35 18 69 39
118 76 116 146 -4 165 -47 8 -97 -3 -314 -70 -80 -25 -210 -66 -290 -90 -80
-25 -201 -62 -270 -84 -69 -21 -147 -45 -175 -53 -51 -15 -952 -293 -1060
-327 -76 -23 -817 -251 -950 -291 -55 -17 -111 -34 -125 -39 -14 -5 -72 -23
-130 -40 -137 -41 -334 -102 -490 -150 -170 -53 -537 -164 -695 -210 -71 -22
-165 -50 -207 -64 -42 -13 -92 -27 -110 -31 -18 -3 -49 -12 -68 -20 -56 -22
-202 -65 -221 -65 -9 0 -28 17 -40 38 -106 171 -332 409 -529 554 -47 35 -86
66 -88 71 -2 4 -7 7 -12 7 -4 0 -37 17 -71 38 -635 384 -1421 423 -2079 104
-192 -93 -254 -131 -410 -251 -115 -88 -321 -296 -400 -404 -36 -49 -72 -98
-81 -110 l-16 -21 -179 52 c-99 28 -280 81 -404 117 -124 37 -331 97 -460 135
-203 59 -474 139 -765 225 -134 40 -527 156 -575 170 -155 44 -610 179 -745
221 -109 33 -432 128 -490 144 -45 12 -401 118 -470 140 -33 10 -170 51 -305
90 -135 40 -357 106 -495 147 -357 107 -390 114 -440 94z m1020 -305 c512
-151 1261 -371 1665 -491 404 -119 1156 -340 1670 -491 l935 -275 45 -47 c25
-26 62 -67 83 -90 l38 -43 128 27 128 26 479 -141 c861 -253 1058 -312 1061
-315 2 -2 2 -125 1 -273 l-3 -270 -545 199 c-300 109 -846 308 -1215 443 -368
134 -904 329 -1190 433 -854 312 -1853 676 -3190 1164 -286 104 -651 237 -812
295 -161 59 -290 110 -287 115 3 4 22 8 42 8 20 0 456 -123 967 -274z m13169
235 c11 -4 15 -10 10 -14 -5 -3 -226 -89 -489 -190 -264 -102 -826 -319 -1250
-482 -423 -163 -914 -352 -1090 -420 -176 -68 -547 -211 -825 -318 -278 -107
-1036 -400 -1685 -650 -649 -250 -1263 -487 -1364 -526 -101 -39 -185 -71
-187 -71 -2 0 -4 135 -4 299 l0 300 113 35 c61 19 245 75 407 125 162 49 421
128 574 175 l279 86 117 -20 c65 -11 123 -20 131 -20 8 1 43 37 78 80 43 52
75 83 95 89 17 6 416 127 886 271 470 144 1080 330 1355 415 275 84 687 210
915 280 1346 411 1562 478 1625 500 154 55 263 74 309 56z m-6789 -521 c229
-25 505 -102 695 -193 344 -165 628 -405 854 -721 31 -43 56 -81 56 -85 0 -3
-23 -34 -51 -69 l-50 -62 -87 122 c-359 503 -899 808 -1505 847 -347 23 -686
-42 -992 -189 -311 -150 -599 -396 -778 -664 -25 -38 -48 -74 -51 -80 -4 -10
-126 108 -126 123 0 22 184 247 284 347 177 176 349 301 561 407 244 122 469
185 780 221 69 7 326 5 410 -4z m-60 -360 c436 -42 860 -248 1147 -559 70 -76
143 -170 137 -176 -4 -3 -383 -121 -1065 -329 l-280 -86 -575 169 c-316 93
-653 192 -749 221 -96 28 -183 53 -193 56 -15 5 -9 15 35 67 273 315 600 514
989 601 193 43 362 54 554 36z m-2043 -1440 l48 -89 -11 -132 c-19 -224 12
-480 86 -704 38 -117 123 -301 178 -388 20 -31 37 -61 37 -65 0 -6 -60 -8
-147 -3 -18 1 -35 27 -92 144 -147 301 -211 570 -211 890 0 185 34 437 58 437
4 0 28 -40 54 -90z m3863 -102 c19 -109 19 -365 0 -512 -30 -227 -100 -445
-213 -661 l-57 -110 -84 2 c-46 2 -85 4 -86 5 -1 2 26 53 61 113 159 276 233
550 240 892 l5 191 52 96 c58 109 60 109 82 -16z m-3375 -175 c124 -53 229
-99 234 -104 8 -7 -4 -29 -189 -328 -132 -214 -155 -262 -155 -324 0 -54 27
-91 75 -103 15 -4 366 26 779 66 l751 72 505 233 c278 129 651 301 829 384
179 83 333 153 343 157 17 5 18 -4 18 -115 0 -215 -47 -472 -119 -654 -59
-149 -179 -365 -215 -389 -13 -8 -2877 -10 -2917 -2 -20 5 -40 28 -88 107
-117 196 -199 421 -237 652 -19 114 -25 402 -10 477 l7 37 82 -36 c45 -19 183
-78 307 -130z m1425 -111 c-6 -5 -46 -25 -90 -44 -113 -51 -537 -242 -975
-440 -206 -94 -381 -172 -387 -175 -19 -8 -16 42 5 85 10 20 91 160 181 310
l164 272 555 0 c306 0 552 -4 547 -8z m4713 -1965 l2 -887 -4648 2 -4649 3
-49 30 c-37 24 -56 45 -79 90 l-30 59 -3 792 c-2 752 -2 793 15 797 10 3 2137
4 4728 3 l4710 -1 3 -888z"/>
<path d="M2820 1182 c0 -637 2 -663 55 -744 14 -20 46 -50 72 -65 l48 -28
1275 0 1275 0 52 29 c59 32 98 84 113 148 6 26 10 284 10 646 l0 602 -670 0
-670 0 0 -548 c0 -535 -4 -605 -32 -624 -7 -4 -43 -8 -79 -8 -113 0 -103 -52
-107 611 l-3 569 -670 0 -669 0 0 -588z"/>
<path d="M6092 1751 c-61 -21 -105 -59 -135 -116 -18 -34 -22 -62 -25 -182
l-4 -143 669 0 670 0 6 86 c8 113 18 124 107 124 102 0 104 -3 109 -211 l3
-168 -678 -3 -679 -3 -57 -27 c-61 -28 -106 -80 -130 -146 -9 -26 -13 -96 -13
-227 0 -179 1 -193 24 -243 28 -62 93 -124 149 -140 29 -9 382 -12 1381 -12
l1342 0 -3 623 c-3 612 -3 623 -24 667 -12 25 -37 59 -55 77 -70 67 8 63
-1363 63 -1177 -1 -1244 -2 -1294 -19z m1398 -992 l0 -171 -85 3 c-72 3 -88 7
-107 27 -21 21 -23 31 -23 141 0 160 6 167 148 170 l67 1 0 -171z"/>
<path d="M9000 1645 l0 -125 627 -2 628 -3 -515 -380 c-283 -208 -566 -416
-627 -462 l-113 -83 0 -125 0 -125 1445 0 c795 0 1445 3 1446 8 0 4 0 59 1
122 l1 115 -627 5 -627 5 83 61 c299 220 1145 843 1166 859 3 3 5 116 3 203
l-1 52 -1445 0 -1445 0 0 -125z"/>
</g>
</svg>
